<svg width="600" height="400" viewBox="0 0 600 400" fill="none" xmlns="http://www.w3.org/2000/svg">
  <!-- Background -->
  <rect width="600" height="400" rx="10" fill="#0C2427" opacity="0.8"/>
  
  <!-- Title -->
  <text x="300" y="40" font-family="Montserrat" font-size="20" font-weight="bold" fill="white" text-anchor="middle">Chia DataLayer with Lochness AI</text>
  
  <!-- Chia Blockchain Layer -->
  <rect x="100" y="300" width="400" height="60" rx="5" fill="url(#gradient1)"/>
  <text x="300" y="335" font-family="Montserrat" font-size="16" font-weight="bold" fill="white" text-anchor="middle">CHIA BLOCKCHAIN</text>
  
  <!-- DataLayer -->
  <rect x="100" y="220" width="400" height="60" rx="5" fill="url(#gradient2)"/>
  <text x="300" y="255" font-family="Montserrat" font-size="16" font-weight="bold" fill="white" text-anchor="middle">CHIA DATALAYER</text>
  
  <!-- Lochness AI Layer -->
  <rect x="100" y="140" width="400" height="60" rx="5" fill="url(#gradient3)"/>
  <text x="300" y="175" font-family="Montserrat" font-size="16" font-weight="bold" fill="white" text-anchor="middle">LOCHNESS AI ENGINE</text>
  
  <!-- Application Layer -->
  <rect x="100" y="60" width="400" height="60" rx="5" fill="url(#gradient4)"/>
  <text x="300" y="95" font-family="Montserrat" font-size="16" font-weight="bold" fill="white" text-anchor="middle">DECENTRALIZED APPLICATIONS</text>
  
  <!-- Connecting Lines -->
  <line x1="300" y1="120" x2="300" y2="140" stroke="white" stroke-width="2" stroke-dasharray="5,5"/>
  <line x1="300" y1="200" x2="300" y2="220" stroke="white" stroke-width="2" stroke-dasharray="5,5"/>
  <line x1="300" y1="280" x2="300" y2="300" stroke="white" stroke-width="2" stroke-dasharray="5,5"/>
  
  <!-- Data Flow Indicators -->
  <circle cx="300" cy="130" r="5" fill="white">
    <animate attributeName="opacity" values="1;0;1" dur="2s" repeatCount="indefinite"/>
  </circle>
  <circle cx="300" cy="210" r="5" fill="white">
    <animate attributeName="opacity" values="1;0;1" dur="2s" begin="0.5s" repeatCount="indefinite"/>
  </circle>
  <circle cx="300" cy="290" r="5" fill="white">
    <animate attributeName="opacity" values="1;0;1" dur="2s" begin="1s" repeatCount="indefinite"/>
  </circle>
  
  <!-- AI Elements -->
  <circle cx="180" cy="170" r="15" fill="#3AAC59" opacity="0.7">
    <animate attributeName="r" values="15;18;15" dur="3s" repeatCount="indefinite"/>
  </circle>
  <circle cx="220" cy="170" r="15" fill="#3AAC59" opacity="0.7">
    <animate attributeName="r" values="15;18;15" dur="3s" begin="0.5s" repeatCount="indefinite"/>
  </circle>
  <circle cx="260" cy="170" r="15" fill="#3AAC59" opacity="0.7">
    <animate attributeName="r" values="15;18;15" dur="3s" begin="1s" repeatCount="indefinite"/>
  </circle>
  <circle cx="300" cy="170" r="15" fill="#3AAC59" opacity="0.7">
    <animate attributeName="r" values="15;18;15" dur="3s" begin="1.5s" repeatCount="indefinite"/>
  </circle>
  <circle cx="340" cy="170" r="15" fill="#3AAC59" opacity="0.7">
    <animate attributeName="r" values="15;18;15" dur="3s" begin="2s" repeatCount="indefinite"/>
  </circle>
  <circle cx="380" cy="170" r="15" fill="#3AAC59" opacity="0.7">
    <animate attributeName="r" values="15;18;15" dur="3s" begin="2.5s" repeatCount="indefinite"/>
  </circle>
  <circle cx="420" cy="170" r="15" fill="#3AAC59" opacity="0.7">
    <animate attributeName="r" values="15;18;15" dur="3s" begin="3s" repeatCount="indefinite"/>
  </circle>
  
  <!-- DataLayer Elements -->
  <rect x="150" y="235" width="30" height="30" rx="3" fill="white" opacity="0.2"/>
  <rect x="190" y="235" width="30" height="30" rx="3" fill="white" opacity="0.2"/>
  <rect x="230" y="235" width="30" height="30" rx="3" fill="white" opacity="0.2"/>
  <rect x="270" y="235" width="30" height="30" rx="3" fill="white" opacity="0.2"/>
  <rect x="310" y="235" width="30" height="30" rx="3" fill="white" opacity="0.2"/>
  <rect x="350" y="235" width="30" height="30" rx="3" fill="white" opacity="0.2"/>
  <rect x="390" y="235" width="30" height="30" rx="3" fill="white" opacity="0.2"/>
  <rect x="430" y="235" width="30" height="30" rx="3" fill="white" opacity="0.2"/>
  
  <!-- App Icons -->
  <rect x="150" y="75" width="30" height="30" rx="15" fill="white" opacity="0.2"/>
  <text x="165" y="95" font-family="FontAwesome" font-size="14" fill="white" text-anchor="middle">&#xf0ac;</text>
  
  <rect x="230" y="75" width="30" height="30" rx="15" fill="white" opacity="0.2"/>
  <text x="245" y="95" font-family="FontAwesome" font-size="14" fill="white" text-anchor="middle">&#xf1c0;</text>
  
  <rect x="310" y="75" width="30" height="30" rx="15" fill="white" opacity="0.2"/>
  <text x="325" y="95" font-family="FontAwesome" font-size="14" fill="white" text-anchor="middle">&#xf0e8;</text>
  
  <rect x="390" y="75" width="30" height="30" rx="15" fill="white" opacity="0.2"/>
  <text x="405" y="95" font-family="FontAwesome" font-size="14" fill="white" text-anchor="middle">&#xf0c3;</text>
  
  <!-- Gradients -->
  <defs>
    <linearGradient id="gradient1" x1="0%" y1="0%" x2="100%" y2="0%">
      <stop offset="0%" stop-color="#3AAC59" />
      <stop offset="100%" stop-color="#5DBE7E" />
    </linearGradient>
    
    <linearGradient id="gradient2" x1="0%" y1="0%" x2="100%" y2="0%">
      <stop offset="0%" stop-color="#5DBE7E" />
      <stop offset="100%" stop-color="#3AAC59" />
    </linearGradient>
    
    <linearGradient id="gradient3" x1="0%" y1="0%" x2="100%" y2="0%">
      <stop offset="0%" stop-color="#344966" />
      <stop offset="100%" stop-color="#3AAC59" />
    </linearGradient>
    
    <linearGradient id="gradient4" x1="0%" y1="0%" x2="100%" y2="0%">
      <stop offset="0%" stop-color="#3AAC59" />
      <stop offset="100%" stop-color="#344966" />
    </linearGradient>
  </defs>
</svg>
