<svg width="200" height="200" viewBox="0 0 200 200" fill="none" xmlns="http://www.w3.org/2000/svg">
  <!-- Background -->
  <circle cx="100" cy="100" r="90" fill="#ECF0F1"/>
  
  <!-- Stargate -->
  <circle cx="100" cy="100" r="70" fill="none" stroke="#3AAC59" stroke-width="15" />
  <circle cx="100" cy="100" r="60" fill="#ECF0F1" stroke="#3AAC59" stroke-width="2" />
  
  <!-- Stargate Symbols -->
  <path d="M100 40 L105 50 L95 50 Z" fill="#2C3E50" />
  <path d="M160 100 L150 105 L150 95 Z" fill="#2C3E50" />
  <path d="M100 160 L95 150 L105 150 Z" fill="#2C3E50" />
  <path d="M40 100 L50 95 L50 105 Z" fill="#2C3E50" />
  <path d="M142 58 L135 65 L128 58 Z" fill="#2C3E50" />
  <path d="M142 142 L135 135 L128 142 Z" fill="#2C3E50" />
  <path d="M58 142 L65 135 L72 142 Z" fill="#2C3E50" />
  <path d="M58 58 L65 65 L72 58 Z" fill="#2C3E50" />
  
  <!-- Stargate Event Horizon -->
  <circle cx="100" cy="100" r="50" fill="#3AAC59" opacity="0.3">
    <animate attributeName="opacity" values="0.3;0.5;0.3" dur="3s" repeatCount="indefinite" />
  </circle>
  
  <!-- Lochness Monster -->
  <!-- Head and neck coming through the stargate -->
  <path d="M120 80 C130 75, 140 85, 145 95 C150 105, 155 110, 160 105" stroke="#3AAC59" stroke-width="8" stroke-linecap="round" fill="none" />
  <path d="M145 95 C150 90, 155 92, 158 88" stroke="#3AAC59" stroke-width="5" stroke-linecap="round" fill="none" />
  
  <!-- Monster head -->
  <circle cx="160" cy="105" r="10" fill="#3AAC59" />
  <circle cx="165" cy="102" r="2" fill="#2C3E50" /> <!-- Eye -->
  
  <!-- Monster mouth open to catch fish -->
  <path d="M165 110 C170 112, 175 110, 178 108" stroke="#3AAC59" stroke-width="3" stroke-linecap="round" fill="none" />
  
  <!-- Fish -->
  <path d="M180 105 L190 100 L180 95 Z" fill="#5DADE2" />
  <path d="M180 105 L185 108 L180 110 Z" fill="#5DADE2" />
  
  <!-- Ripples in the event horizon -->
  <path d="M90 100 C95 95, 105 95, 110 100" stroke="#2C3E50" stroke-width="1.5" stroke-dasharray="2,2" fill="none" />
  <path d="M85 105 C95 100, 105 100, 115 105" stroke="#2C3E50" stroke-width="1.5" stroke-dasharray="2,2" fill="none" />
  <path d="M80 110 C95 105, 105 105, 120 110" stroke="#2C3E50" stroke-width="1.5" stroke-dasharray="2,2" fill="none" />
</svg>
