<svg width="200" height="200" viewBox="0 0 200 200" fill="none" xmlns="http://www.w3.org/2000/svg">
  <circle cx="100" cy="100" r="90" fill="#ECF0F1"/>
  <path d="M100 20C55.8 20 20 55.8 20 100C20 144.2 55.8 180 100 180C144.2 180 180 144.2 180 100C180 55.8 144.2 20 100 20ZM100 170C61.3 170 30 138.7 30 100C30 61.3 61.3 30 100 30C138.7 30 170 61.3 170 100C170 138.7 138.7 170 100 170Z" fill="#3AAC59"/>
  <path d="M140 80C140 80 130 65 115 65C100 65 90 80 90 80C90 80 80 65 65 65C50 65 40 80 40 80C40 80 50 120 65 135C80 150 90 135 90 135C90 135 100 150 115 135C130 120 140 80 140 80Z" fill="#3AAC59"/>
  <circle cx="70" cy="85" r="5" fill="#2C3E50"/>
  <circle cx="130" cy="85" r="5" fill="#2C3E50"/>
  <path d="M85 110C85 110 95 120 115 110" stroke="#2C3E50" stroke-width="3" stroke-linecap="round"/>
</svg>
